<svg xmlns="http://www.w3.org/2000/svg" xmlns:v="https://svgstorm.com"
viewBox = "0 0 512 512"
width="512"
height="512">
<g fill="None" fill-opacity="0.0" stroke="#000000" stroke-opacity="0.00" stroke-width="0.3"><path d="
M 0.00 233.00 
C 8.14 113.95 114.03 8.14 233.00 0.00
L 0.00 0.00
L 0.00 233.00 Z"/>
</g>
<g fill="None" fill-opacity="0.0" stroke="#FEC742" stroke-opacity="0.99" stroke-width="0.3"><path d="
M 0.00 233.00 
L 0.00 236.00
C 1.39 236.74 1.65 240.32 0.00 241.00
L 0.00 242.00
C 1.39 242.74 1.65 246.32 0.00 247.00
L 0.00 263.00
C 1.60 266.93 1.70 274.14 0.00 278.00
L 0.00 279.00
C 8.14 398.07 114.04 503.84 233.00 512.00
L 236.00 512.00
C 236.74 510.61 240.32 510.35 241.00 512.00
L 242.00 512.00
C 243.33 510.53 247.74 510.29 249.00 512.00
L 263.00 512.00
C 264.96 510.48 270.11 510.28 272.00 512.00
L 273.00 512.00
C 274.14 510.37 277.11 511.05 279.00 511.00
C 398.95 507.63 503.53 395.08 512.00 279.00
L 512.00 273.00
C 510.46 270.72 510.28 265.21 512.00 263.00
L 512.00 249.00
C 510.53 247.67 510.29 243.26 512.00 242.00
L 512.00 233.00
C 503.83 113.96 397.99 8.13 279.00 0.00
L 274.00 0.00
C 272.04 1.52 266.89 1.72 265.00 0.00
L 233.00 0.00
C 114.03 8.14 8.14 113.95 0.00 233.00
M 270.00 48.00 
C 354.02 56.13 429.43 111.01 454.92 195.08 C 480.41 279.15 447.89 376.87 372.77 427.77 C 297.65 478.67 194.21 473.46 123.75 416.25 C 53.30 359.03 29.84 255.36 64.32 175.32 C 98.80 95.29 182.50 39.53 270.00 48.00 Z"/>
</g>
<g fill="None" fill-opacity="0.0" stroke="#FEC843" stroke-opacity="0.63" stroke-width="0.3"><path d="
M 274.00 0.00 
L 265.00 0.00
C 266.89 1.72 272.04 1.52 274.00 0.00 Z"/>
</g>
<g fill="None" fill-opacity="0.0" stroke="#000000" stroke-opacity="0.00" stroke-width="0.3"><path d="
M 512.00 233.00 
L 512.00 0.00
L 279.00 0.00
C 397.99 8.13 503.83 113.96 512.00 233.00 Z"/>
</g>
<g fill="None" fill-opacity="0.0" stroke="#D39000" stroke-opacity="1.00" stroke-width="0.3"><path d="
M 270.00 48.00 
C 182.50 39.53 98.80 95.29 64.32 175.32 C 29.84 255.36 53.30 359.03 123.75 416.25 C 194.21 473.46 297.65 478.67 372.77 427.77 C 447.89 376.87 480.41 279.15 454.92 195.08 C 429.43 111.01 354.02 56.13 270.00 48.00
M 278.00 126.00 
C 296.54 128.06 313.47 134.11 329.75 143.25 C 346.02 152.39 346.01 178.01 327.77 185.77 C 309.53 193.53 293.63 174.69 276.00 173.00
C 274.42 187.72 278.10 201.15 276.00 216.00 C 273.90 230.85 290.96 229.77 301.22 234.78 C 311.48 239.78 320.78 242.91 329.75 250.25 C 338.72 257.60 343.79 265.53 347.98 276.03 C 352.16 286.52 354.42 302.30 351.68 313.68 C 348.93 325.06 345.91 335.32 338.08 344.08 C 330.26 352.84 323.28 358.06 312.92 362.92 C 302.57 367.79 289.79 371.42 278.00 372.00
C 279.06 386.33 279.54 409.35 259.99 409.99 C 240.45 410.63 238.87 386.69 241.00 372.00
C 215.94 371.67 199.40 358.66 176.31 350.69 C 153.21 342.73 154.65 303.23 180.01 302.01 C 205.37 300.78 217.68 327.11 243.00 326.00
C 244.17 314.14 241.43 302.92 243.00 291.00 C 244.57 279.08 243.36 268.38 231.93 267.07 C 220.49 265.77 216.10 260.58 206.77 257.23 C 197.44 253.88 193.09 249.33 185.75 243.25 C 178.42 237.16 175.45 231.11 171.23 222.77 C 167.01 214.43 167.12 201.69 167.00 192.00 C 166.88 182.31 169.04 171.63 173.77 163.77 C 178.50 155.91 182.02 150.14 189.25 144.25 C 196.48 138.36 203.52 135.79 212.03 132.02 C 220.53 128.26 231.35 125.45 241.00 125.00
C 234.69 94.80 284.50 96.58 278.00 126.00 Z"/>
</g>
<g fill="None" fill-opacity="0.0" stroke="#FEC742" stroke-opacity="1.00" stroke-width="0.3"><path d="
M 278.00 126.00 
C 284.50 96.58 234.69 94.80 241.00 125.00
C 231.35 125.45 220.53 128.26 212.03 132.02 C 203.52 135.79 196.48 138.36 189.25 144.25 C 182.02 150.14 178.50 155.91 173.77 163.77 C 169.04 171.63 166.88 182.31 167.00 192.00 C 167.12 201.69 167.01 214.43 171.23 222.77 C 175.45 231.11 178.42 237.16 185.75 243.25 C 193.09 249.33 197.44 253.88 206.77 257.23 C 216.10 260.58 220.49 265.77 231.93 267.07 C 243.36 268.38 244.57 279.08 243.00 291.00 C 241.43 302.92 244.17 314.14 243.00 326.00
C 217.68 327.11 205.37 300.78 180.01 302.01 C 154.65 303.23 153.21 342.73 176.31 350.69 C 199.40 358.66 215.94 371.67 241.00 372.00
C 238.87 386.69 240.45 410.63 259.99 409.99 C 279.54 409.35 279.06 386.33 278.00 372.00
C 289.79 371.42 302.57 367.79 312.92 362.92 C 323.28 358.06 330.26 352.84 338.08 344.08 C 345.91 335.32 348.93 325.06 351.68 313.68 C 354.42 302.30 352.16 286.52 347.98 276.03 C 343.79 265.53 338.72 257.60 329.75 250.25 C 320.78 242.91 311.48 239.78 301.22 234.78 C 290.96 229.77 273.90 230.85 276.00 216.00 C 278.10 201.15 274.42 187.72 276.00 173.00
C 293.63 174.69 309.53 193.53 327.77 185.77 C 346.01 178.01 346.02 152.39 329.75 143.25 C 313.47 134.11 296.54 128.06 278.00 126.00
M 243.00 169.00 
C 243.00 185.00 243.00 201.00 243.00 217.00
C 231.63 213.54 218.71 206.54 218.01 192.99 C 217.31 179.44 230.36 169.60 243.00 169.00
M 276.00 328.00 
C 276.00 311.67 276.00 295.33 276.00 279.00
C 287.75 283.50 299.48 288.85 300.98 303.02 C 302.47 317.20 289.64 327.89 276.00 328.00 Z"/>
</g>
<g fill="None" fill-opacity="0.0" stroke="#D59102" stroke-opacity="1.00" stroke-width="0.3"><path d="
M 243.00 169.00 
C 230.36 169.60 217.31 179.44 218.01 192.99 C 218.71 206.54 231.63 213.54 243.00 217.00
C 243.00 201.00 243.00 185.00 243.00 169.00 Z"/>
</g>
<g fill="None" fill-opacity="0.0" stroke="#FEC842" stroke-opacity="0.40" stroke-width="0.3"><path d="
M 0.00 241.00 
C 1.65 240.32 1.39 236.74 0.00 236.00
L 0.00 241.00 Z"/>
</g>
<g fill="None" fill-opacity="0.0" stroke="#FEC843" stroke-opacity="0.73" stroke-width="0.3"><path d="
M 0.00 247.00 
C 1.65 246.32 1.39 242.74 0.00 242.00
L 0.00 247.00 Z"/>
</g>
<g fill="None" fill-opacity="0.0" stroke="#FEC843" stroke-opacity="0.76" stroke-width="0.3"><path d="
M 512.00 249.00 
L 512.00 242.00
C 510.29 243.26 510.53 247.67 512.00 249.00 Z"/>
</g>
<g fill="None" fill-opacity="0.0" stroke="#FFC843" stroke-opacity="0.55" stroke-width="0.3"><path d="
M 0.00 278.00 
C 1.70 274.14 1.60 266.93 0.00 263.00
L 0.00 278.00 Z"/>
</g>
<g fill="None" fill-opacity="0.0" stroke="#FEC843" stroke-opacity="0.69" stroke-width="0.3"><path d="
M 512.00 273.00 
L 512.00 263.00
C 510.28 265.21 510.46 270.72 512.00 273.00 Z"/>
</g>
<g fill="None" fill-opacity="0.0" stroke="#000000" stroke-opacity="0.00" stroke-width="0.3"><path d="
M 0.00 512.00 
L 233.00 512.00
C 114.04 503.84 8.14 398.07 0.00 279.00
L 0.00 512.00 Z"/>
</g>
<g fill="None" fill-opacity="0.0" stroke="#D49000" stroke-opacity="1.00" stroke-width="0.3"><path d="
M 276.00 328.00 
C 289.64 327.89 302.47 317.20 300.98 303.02 C 299.48 288.85 287.75 283.50 276.00 279.00
C 276.00 295.33 276.00 311.67 276.00 328.00 Z"/>
</g>
<g fill="None" fill-opacity="0.0" stroke="#000000" stroke-opacity="0.00" stroke-width="0.3"><path d="
M 279.00 511.00 
C 278.95 511.00 279.00 512.00 279.00 512.00
L 512.00 512.00
L 512.00 279.00
C 503.53 395.08 398.95 507.63 279.00 511.00 Z"/>
</g>
<g fill="None" fill-opacity="0.0" stroke="#FFC842" stroke-opacity="0.39" stroke-width="0.3"><path d="
M 236.00 512.00 
L 241.00 512.00
C 240.32 510.35 236.74 510.61 236.00 512.00 Z"/>
</g>
<g fill="None" fill-opacity="0.0" stroke="#FEC842" stroke-opacity="0.76" stroke-width="0.3"><path d="
M 242.00 512.00 
L 249.00 512.00
C 247.74 510.29 243.33 510.53 242.00 512.00 Z"/>
</g>
<g fill="None" fill-opacity="0.0" stroke="#FEC843" stroke-opacity="0.71" stroke-width="0.3"><path d="
M 263.00 512.00 
L 272.00 512.00
C 270.11 510.28 264.96 510.48 263.00 512.00 Z"/>
</g>
<g fill="None" fill-opacity="0.0" stroke="#FFD14E" stroke-opacity="0.21" stroke-width="0.3"><path d="
M 273.00 512.00 
L 279.00 512.00
C 279.00 512.00 278.95 511.00 279.00 511.00
C 277.11 511.05 274.14 510.37 273.00 512.00 Z"/>
</g>
<g fill="#000000" fill-opacity="0.00" stroke="None">
<path d="
M 0.00 233.00 
C 8.14 113.95 114.03 8.14 233.00 0.00
L 0.00 0.00
L 0.00 233.00 Z"/>
</g>
<g fill="#FEC742" fill-opacity="0.99" stroke="None">
<path d="
M 0.00 233.00 
L 0.00 236.00
C 1.39 236.74 1.65 240.32 0.00 241.00
L 0.00 242.00
C 1.39 242.74 1.65 246.32 0.00 247.00
L 0.00 263.00
C 1.60 266.93 1.70 274.14 0.00 278.00
L 0.00 279.00
C 8.14 398.07 114.04 503.84 233.00 512.00
L 236.00 512.00
C 236.74 510.61 240.32 510.35 241.00 512.00
L 242.00 512.00
C 243.33 510.53 247.74 510.29 249.00 512.00
L 263.00 512.00
C 264.96 510.48 270.11 510.28 272.00 512.00
L 273.00 512.00
C 274.14 510.37 277.11 511.05 279.00 511.00
C 398.95 507.63 503.53 395.08 512.00 279.00
L 512.00 273.00
C 510.46 270.72 510.28 265.21 512.00 263.00
L 512.00 249.00
C 510.53 247.67 510.29 243.26 512.00 242.00
L 512.00 233.00
C 503.83 113.96 397.99 8.13 279.00 0.00
L 274.00 0.00
C 272.04 1.52 266.89 1.72 265.00 0.00
L 233.00 0.00
C 114.03 8.14 8.14 113.95 0.00 233.00
M 270.00 48.00 
C 354.02 56.13 429.43 111.01 454.92 195.08 C 480.41 279.15 447.89 376.87 372.77 427.77 C 297.65 478.67 194.21 473.46 123.75 416.25 C 53.30 359.03 29.84 255.36 64.32 175.32 C 98.80 95.29 182.50 39.53 270.00 48.00 Z"/>
</g>
<g fill="#FEC843" fill-opacity="0.63" stroke="None">
<path d="
M 274.00 0.00 
L 265.00 0.00
C 266.89 1.72 272.04 1.52 274.00 0.00 Z"/>
</g>
<g fill="#000000" fill-opacity="0.00" stroke="None">
<path d="
M 512.00 233.00 
L 512.00 0.00
L 279.00 0.00
C 397.99 8.13 503.83 113.96 512.00 233.00 Z"/>
</g>
<g fill="#D39000" fill-opacity="1.00" stroke="None">
<path d="
M 270.00 48.00 
C 182.50 39.53 98.80 95.29 64.32 175.32 C 29.84 255.36 53.30 359.03 123.75 416.25 C 194.21 473.46 297.65 478.67 372.77 427.77 C 447.89 376.87 480.41 279.15 454.92 195.08 C 429.43 111.01 354.02 56.13 270.00 48.00
M 278.00 126.00 
C 296.54 128.06 313.47 134.11 329.75 143.25 C 346.02 152.39 346.01 178.01 327.77 185.77 C 309.53 193.53 293.63 174.69 276.00 173.00
C 274.42 187.72 278.10 201.15 276.00 216.00 C 273.90 230.85 290.96 229.77 301.22 234.78 C 311.48 239.78 320.78 242.91 329.75 250.25 C 338.72 257.60 343.79 265.53 347.98 276.03 C 352.16 286.52 354.42 302.30 351.68 313.68 C 348.93 325.06 345.91 335.32 338.08 344.08 C 330.26 352.84 323.28 358.06 312.92 362.92 C 302.57 367.79 289.79 371.42 278.00 372.00
C 279.06 386.33 279.54 409.35 259.99 409.99 C 240.45 410.63 238.87 386.69 241.00 372.00
C 215.94 371.67 199.40 358.66 176.31 350.69 C 153.21 342.73 154.65 303.23 180.01 302.01 C 205.37 300.78 217.68 327.11 243.00 326.00
C 244.17 314.14 241.43 302.92 243.00 291.00 C 244.57 279.08 243.36 268.38 231.93 267.07 C 220.49 265.77 216.10 260.58 206.77 257.23 C 197.44 253.88 193.09 249.33 185.75 243.25 C 178.42 237.16 175.45 231.11 171.23 222.77 C 167.01 214.43 167.12 201.69 167.00 192.00 C 166.88 182.31 169.04 171.63 173.77 163.77 C 178.50 155.91 182.02 150.14 189.25 144.25 C 196.48 138.36 203.52 135.79 212.03 132.02 C 220.53 128.26 231.35 125.45 241.00 125.00
C 234.69 94.80 284.50 96.58 278.00 126.00 Z"/>
</g>
<g fill="#FEC742" fill-opacity="1.00" stroke="None">
<path d="
M 278.00 126.00 
C 284.50 96.58 234.69 94.80 241.00 125.00
C 231.35 125.45 220.53 128.26 212.03 132.02 C 203.52 135.79 196.48 138.36 189.25 144.25 C 182.02 150.14 178.50 155.91 173.77 163.77 C 169.04 171.63 166.88 182.31 167.00 192.00 C 167.12 201.69 167.01 214.43 171.23 222.77 C 175.45 231.11 178.42 237.16 185.75 243.25 C 193.09 249.33 197.44 253.88 206.77 257.23 C 216.10 260.58 220.49 265.77 231.93 267.07 C 243.36 268.38 244.57 279.08 243.00 291.00 C 241.43 302.92 244.17 314.14 243.00 326.00
C 217.68 327.11 205.37 300.78 180.01 302.01 C 154.65 303.23 153.21 342.73 176.31 350.69 C 199.40 358.66 215.94 371.67 241.00 372.00
C 238.87 386.69 240.45 410.63 259.99 409.99 C 279.54 409.35 279.06 386.33 278.00 372.00
C 289.79 371.42 302.57 367.79 312.92 362.92 C 323.28 358.06 330.26 352.84 338.08 344.08 C 345.91 335.32 348.93 325.06 351.68 313.68 C 354.42 302.30 352.16 286.52 347.98 276.03 C 343.79 265.53 338.72 257.60 329.75 250.25 C 320.78 242.91 311.48 239.78 301.22 234.78 C 290.96 229.77 273.90 230.85 276.00 216.00 C 278.10 201.15 274.42 187.72 276.00 173.00
C 293.63 174.69 309.53 193.53 327.77 185.77 C 346.01 178.01 346.02 152.39 329.75 143.25 C 313.47 134.11 296.54 128.06 278.00 126.00
M 243.00 169.00 
C 243.00 185.00 243.00 201.00 243.00 217.00
C 231.63 213.54 218.71 206.54 218.01 192.99 C 217.31 179.44 230.36 169.60 243.00 169.00
M 276.00 328.00 
C 276.00 311.67 276.00 295.33 276.00 279.00
C 287.75 283.50 299.48 288.85 300.98 303.02 C 302.47 317.20 289.64 327.89 276.00 328.00 Z"/>
</g>
<g fill="#D59102" fill-opacity="1.00" stroke="None">
<path d="
M 243.00 169.00 
C 230.36 169.60 217.31 179.44 218.01 192.99 C 218.71 206.54 231.63 213.54 243.00 217.00
C 243.00 201.00 243.00 185.00 243.00 169.00 Z"/>
</g>
<g fill="#FEC842" fill-opacity="0.40" stroke="None">
<path d="
M 0.00 241.00 
C 1.65 240.32 1.39 236.74 0.00 236.00
L 0.00 241.00 Z"/>
</g>
<g fill="#FEC843" fill-opacity="0.73" stroke="None">
<path d="
M 0.00 247.00 
C 1.65 246.32 1.39 242.74 0.00 242.00
L 0.00 247.00 Z"/>
</g>
<g fill="#FEC843" fill-opacity="0.76" stroke="None">
<path d="
M 512.00 249.00 
L 512.00 242.00
C 510.29 243.26 510.53 247.67 512.00 249.00 Z"/>
</g>
<g fill="#FFC843" fill-opacity="0.55" stroke="None">
<path d="
M 0.00 278.00 
C 1.70 274.14 1.60 266.93 0.00 263.00
L 0.00 278.00 Z"/>
</g>
<g fill="#FEC843" fill-opacity="0.69" stroke="None">
<path d="
M 512.00 273.00 
L 512.00 263.00
C 510.28 265.21 510.46 270.72 512.00 273.00 Z"/>
</g>
<g fill="#000000" fill-opacity="0.00" stroke="None">
<path d="
M 0.00 512.00 
L 233.00 512.00
C 114.04 503.84 8.14 398.07 0.00 279.00
L 0.00 512.00 Z"/>
</g>
<g fill="#D49000" fill-opacity="1.00" stroke="None">
<path d="
M 276.00 328.00 
C 289.64 327.89 302.47 317.20 300.98 303.02 C 299.48 288.85 287.75 283.50 276.00 279.00
C 276.00 295.33 276.00 311.67 276.00 328.00 Z"/>
</g>
<g fill="#000000" fill-opacity="0.00" stroke="None">
<path d="
M 279.00 511.00 
C 278.95 511.00 279.00 512.00 279.00 512.00
L 512.00 512.00
L 512.00 279.00
C 503.53 395.08 398.95 507.63 279.00 511.00 Z"/>
</g>
<g fill="#FFC842" fill-opacity="0.39" stroke="None">
<path d="
M 236.00 512.00 
L 241.00 512.00
C 240.32 510.35 236.74 510.61 236.00 512.00 Z"/>
</g>
<g fill="#FEC842" fill-opacity="0.76" stroke="None">
<path d="
M 242.00 512.00 
L 249.00 512.00
C 247.74 510.29 243.33 510.53 242.00 512.00 Z"/>
</g>
<g fill="#FEC843" fill-opacity="0.71" stroke="None">
<path d="
M 263.00 512.00 
L 272.00 512.00
C 270.11 510.28 264.96 510.48 263.00 512.00 Z"/>
</g>
<g fill="#FFD14E" fill-opacity="0.21" stroke="None">
<path d="
M 273.00 512.00 
L 279.00 512.00
C 279.00 512.00 278.95 511.00 279.00 511.00
C 277.11 511.05 274.14 510.37 273.00 512.00 Z"/>
</g>
</svg>